<svg width="32" height="33" viewBox="0 0 32 33" fill="none" xmlns="http://www.w3.org/2000/svg">
<path d="M4.99969 15.5C4.73447 15.5 4.48012 15.6053 4.29258 15.7929C4.10505 15.9804 3.99969 16.2347 3.99969 16.5C3.99969 16.7652 4.10505 17.0195 4.29258 17.2071C4.48012 17.3946 4.73447 17.5 4.99969 17.5L24.3937 17.5L16.3317 24.756C16.1391 24.9344 16.0244 25.1814 16.0123 25.4436C16.0002 25.7059 16.0917 25.9623 16.2671 26.1577C16.4425 26.353 16.6877 26.4716 16.9497 26.4877C17.2118 26.5039 17.4697 26.4163 17.6677 26.244L27.6677 17.244C27.7721 17.1502 27.8556 17.0355 27.9128 16.9073C27.97 16.7791 27.9995 16.6403 27.9995 16.5C27.9995 16.3596 27.97 16.2208 27.9128 16.0926C27.8556 15.9645 27.7721 15.8497 27.6677 15.756L17.6677 6.75597C17.4697 6.58362 17.2118 6.49607 16.9497 6.51221C16.6877 6.52835 16.4425 6.64689 16.2671 6.84224C16.0917 7.03758 16.0002 7.29407 16.0123 7.55633C16.0244 7.81858 16.1391 8.06557 16.3317 8.24397L24.3937 15.5L4.99969 15.5Z" fill="black"/>
</svg>
